<svg width="32" height="32" viewBox="0 0 32 32" xmlns="http://www.w3.org/2000/svg">
  <defs>
    <!-- 渐变定义 -->
    <linearGradient id="bgGradient" x1="0%" y1="0%" x2="100%" y2="100%">
      <stop offset="0%" style="stop-color:#2eaadc;stop-opacity:1" />
      <stop offset="100%" style="stop-color:#2596be;stop-opacity:1" />
    </linearGradient>
    
    <linearGradient id="bookmarkGradient" x1="0%" y1="0%" x2="100%" y2="100%">
      <stop offset="0%" style="stop-color:#ffffff;stop-opacity:1" />
      <stop offset="100%" style="stop-color:#f8f9fa;stop-opacity:1" />
    </linearGradient>
    
    <linearGradient id="linkGradient" x1="0%" y1="0%" x2="100%" y2="100%">
      <stop offset="0%" style="stop-color:#28a745;stop-opacity:1" />
      <stop offset="100%" style="stop-color:#20c997;stop-opacity:1" />
    </linearGradient>
  </defs>
  
  <!-- 背景圆形 -->
  <circle cx="16" cy="16" r="16" fill="url(#bgGradient)" />
  
  <!-- 书签主体 -->
  <path d="M8 6 L8 24 L16 18 L24 24 L24 6 Z" fill="url(#bookmarkGradient)" stroke="#ffffff" stroke-width="1" />
  
  <!-- 书签装饰线 -->
  <line x1="12" y1="10" x2="20" y2="10" stroke="#2eaadc" stroke-width="1.5" stroke-linecap="round" />
  <line x1="12" y1="13" x2="18" y2="13" stroke="#2eaadc" stroke-width="1" stroke-linecap="round" />
  
  <!-- 链接图标 -->
  <g transform="translate(18, 8)">
    <!-- 链接环 -->
    <path d="M2 6 C2 3.8 3.8 2 6 2 L8 2 C10.2 2 12 3.8 12 6 L12 8 C12 10.2 10.2 12 8 12 L6 12 C3.8 12 2 10.2 2 8 Z" 
          fill="none" stroke="url(#linkGradient)" stroke-width="1.5" />
    
    <!-- 链接箭头 -->
    <path d="M8 4 L10 6 L8 8" fill="none" stroke="url(#linkGradient)" stroke-width="1.5" stroke-linecap="round" stroke-linejoin="round" />
    <path d="M2 6 L4 6" fill="none" stroke="url(#linkGradient)" stroke-width="1.5" stroke-linecap="round" />
  </g>
  
  <!-- 装饰点 -->
  <circle cx="6" cy="22" r="1" fill="#ffffff" opacity="0.8" />
  <circle cx="26" cy="10" r="1" fill="#ffffff" opacity="0.6" />
  <circle cx="22" cy="26" r="0.8" fill="#ffffff" opacity="0.4" />
</svg> 